<?xml version="1.0" encoding="UTF-8"?>
<svg xmlns="http://www.w3.org/2000/svg" xmlns:xlink="http://www.w3.org/1999/xlink" width="500px" height="563px" viewBox="0 0 500 562" version="1.1">
<g id="surface1">
<path style=" stroke:none;fill-rule:nonzero;fill:rgb(63.137255%,47.45098%,86.27451%);fill-opacity:1;" d="M 497.777344 166.367188 C 497.773438 157.011719 495.769531 148.742188 491.71875 141.648438 C 487.742188 134.667969 481.78125 128.820312 473.789062 124.195312 C 407.808594 86.191406 341.765625 48.300781 275.808594 10.253906 C 258.027344 0 240.789062 0.375 223.136719 10.777344 C 196.875 26.25 65.394531 101.503906 26.214844 124.175781 C 10.078125 133.507812 2.226562 147.789062 2.222656 166.351562 C 2.195312 242.78125 2.222656 319.214844 2.195312 395.648438 C 2.195312 404.800781 4.117188 412.910156 7.992188 419.894531 C 11.972656 427.085938 18.015625 433.09375 26.191406 437.824219 C 65.375 460.492188 196.875 535.742188 223.128906 551.21875 C 240.789062 561.628906 258.027344 562 275.816406 551.742188 C 341.773438 513.695312 407.820312 475.804688 473.808594 437.800781 C 481.988281 433.074219 488.03125 427.058594 492.011719 419.875 C 495.878906 412.886719 497.804688 404.78125 497.804688 395.625 C 497.804688 395.625 497.804688 242.800781 497.777344 166.367188 "/>
<path style=" stroke:none;fill-rule:nonzero;fill:rgb(15.686275%,0%,40.784314%);fill-opacity:1;" d="M 250.757812 280.253906 L 7.992188 419.894531 C 11.972656 427.085938 18.015625 433.09375 26.191406 437.824219 C 65.375 460.492188 196.875 535.742188 223.128906 551.21875 C 240.789062 561.628906 258.027344 562 275.816406 551.742188 C 341.773438 513.695312 407.820312 475.804688 473.808594 437.800781 C 481.988281 433.074219 488.03125 427.058594 492.011719 419.875 Z M 250.757812 280.253906 "/>
<path style=" stroke:none;fill-rule:nonzero;fill:rgb(22.352941%,0%,56.862745%);fill-opacity:1;" d="M 497.777344 166.367188 C 497.773438 157.011719 495.769531 148.742188 491.71875 141.648438 L 250.757812 280.257812 L 492.011719 419.875 C 495.878906 412.886719 497.800781 404.78125 497.804688 395.625 C 497.804688 395.625 497.804688 242.800781 497.777344 166.367188 "/>
<path style=" stroke:none;fill-rule:nonzero;fill:rgb(100%,100%,100%);fill-opacity:1;" d="M 393.691406 228.050781 L 393.691406 254.152344 L 419.820312 254.152344 L 419.820312 228.050781 L 432.882812 228.050781 L 432.882812 254.152344 L 459.011719 254.152344 L 459.011719 267.207031 L 432.882812 267.207031 L 432.882812 293.304688 L 459.011719 293.304688 L 459.011719 306.355469 L 432.882812 306.355469 L 432.882812 332.457031 L 419.820312 332.457031 L 419.820312 306.355469 L 393.691406 306.355469 L 393.691406 332.457031 L 380.628906 332.457031 L 380.628906 306.355469 L 354.5 306.355469 L 354.5 293.304688 L 380.628906 293.304688 L 380.628906 267.207031 L 354.5 267.207031 L 354.5 254.152344 L 380.628906 254.152344 L 380.628906 228.050781 Z M 419.820312 267.203125 L 393.691406 267.203125 L 393.691406 293.304688 L 419.820312 293.304688 Z M 419.820312 267.203125 "/>
<path style=" stroke:none;fill-rule:nonzero;fill:rgb(100%,100%,100%);fill-opacity:1;" d="M 251.292969 96.964844 C 319.441406 96.964844 378.9375 133.9375 410.808594 188.898438 L 410.496094 188.367188 L 330.316406 234.488281 C 314.519531 207.769531 285.558594 189.734375 252.335938 189.363281 L 251.289062 189.359375 C 200.628906 189.359375 159.558594 230.386719 159.558594 281 C 159.542969 296.949219 163.714844 312.625 171.65625 326.464844 C 187.46875 354.039062 217.195312 372.640625 251.292969 372.640625 C 285.601562 372.640625 315.492188 353.804688 331.222656 325.933594 L 330.84375 326.601562 L 410.902344 372.9375 C 379.382812 427.429688 320.699219 464.289062 253.34375 465.023438 L 251.292969 465.035156 C 182.925781 465.035156 123.261719 427.832031 91.46875 372.582031 C 75.953125 345.613281 67.074219 314.34375 67.074219 281 C 67.074219 179.359375 149.546875 96.964844 251.289062 96.964844 Z M 251.292969 96.964844 "/>
</g>
</svg>
