<?xml version="1.0" encoding="UTF-8"?>
<svg xmlns="http://www.w3.org/2000/svg" xmlns:xlink="http://www.w3.org/1999/xlink" width="500px" height="501px" viewBox="0 0 500 501" version="1.1">
<g id="surface1">
<path style=" stroke:none;fill-rule:nonzero;fill:rgb(100%,100%,100%);fill-opacity:1;" d="M 494.480469 250.5 C 494.480469 112.335938 385.027344 0.332031 250.011719 0.332031 C 114.992188 0.332031 5.542969 112.335938 5.542969 250.5 C 5.542969 388.664062 114.992188 500.667969 250.011719 500.667969 C 385.027344 500.667969 494.480469 388.664062 494.480469 250.5 Z M 494.480469 250.5 "/>
<path style=" stroke:none;fill-rule:nonzero;fill:rgb(36.078431%,41.960784%,75.294118%);fill-opacity:1;" d="M 250.011719 1.273438 C 111.953125 1.273438 0 113.140625 0 251.164062 C 0 361.585938 71.636719 455.25 170.964844 488.285156 C 183.453125 490.59375 188.050781 482.867188 188.050781 476.265625 C 188.050781 470.304688 187.808594 450.617188 187.707031 429.742188 C 118.160156 444.855469 103.480469 400.261719 103.480469 400.261719 C 92.117188 371.378906 75.714844 363.695312 75.714844 363.695312 C 53.027344 348.179688 77.421875 348.5 77.421875 348.5 C 102.519531 350.265625 115.75 374.25 115.75 374.25 C 138.054688 412.464844 174.234375 401.40625 188.492188 395.023438 C 190.738281 378.867188 197.207031 367.847656 204.371094 361.605469 C 148.835938 355.285156 90.472656 333.851562 90.472656 238.097656 C 90.472656 210.820312 100.230469 188.523438 116.230469 171.023438 C 113.640625 164.742188 105.085938 139.332031 118.660156 104.914062 C 118.660156 104.914062 139.660156 98.191406 187.425781 130.523438 C 207.363281 124.984375 228.746094 122.214844 250.011719 122.113281 C 271.253906 122.214844 292.65625 124.984375 312.632812 130.523438 C 360.359375 98.191406 381.320312 104.914062 381.320312 104.914062 C 394.933594 139.332031 386.359375 164.761719 383.769531 171.042969 C 399.792969 188.542969 409.488281 210.84375 409.488281 238.117188 C 409.488281 334.089844 351 355.246094 295.324219 361.425781 C 304.300781 369.171875 312.292969 384.386719 312.292969 407.707031 C 312.292969 441.144531 312.011719 468.054688 312.011719 476.285156 C 312.011719 482.929688 316.507812 490.734375 329.175781 488.265625 C 428.460938 455.191406 500 361.546875 500 251.164062 C 500 113.140625 388.066406 1.273438 250.011719 1.273438 "/>
</g>
</svg>
