<?xml version="1.0" encoding="UTF-8"?>
<svg xmlns="http://www.w3.org/2000/svg" xmlns:xlink="http://www.w3.org/1999/xlink" width="500px" height="500px" viewBox="0 0 500 500" version="1.1">
<g id="surface1">
<path style=" stroke:none;fill-rule:nonzero;fill:rgb(46.666667%,73.72549%,12.156863%);fill-opacity:1;" d="M 454.742188 26.074219 C 447.707031 42.867188 438.785156 58.816406 428.042969 73.460938 C 381.023438 26.464844 317.203125 0.0351562 250.714844 0.0351562 C 113.179688 0.0351562 0 113.300781 0 250.976562 C 0 319.652344 28.132812 385.398438 77.886719 432.785156 L 87.132812 440.988281 C 132.324219 479.070312 189.566406 500.03125 248.632812 500.03125 C 379.394531 500.03125 489.320312 397.570312 498.632812 266.988281 C 505.46875 203.066406 486.714844 122.21875 454.742188 26.074219 Z M 113.507812 434.21875 C 109.46875 439.230469 103.28125 442.160156 96.835938 442.160156 C 85.046875 442.160156 75.410156 432.460938 75.410156 420.679688 C 75.410156 408.898438 85.113281 399.199219 96.835938 399.199219 C 101.71875 399.199219 106.539062 400.890625 110.316406 404.015625 C 119.496094 411.4375 120.929688 425.039062 113.507812 434.21875 Z M 453.699219 359.097656 C 391.832031 441.574219 259.703125 413.777344 174.980469 417.75 C 174.980469 417.75 159.9375 418.660156 144.828125 421.136719 C 144.828125 421.136719 150.496094 418.726562 157.855469 415.925781 C 217.308594 395.226562 245.441406 391.191406 281.582031 372.640625 C 349.636719 338.007812 416.90625 262.238281 430.90625 183.40625 C 404.988281 259.242188 326.453125 324.402344 254.882812 350.898438 C 205.847656 368.992188 117.28125 386.570312 117.28125 386.570312 L 113.703125 384.683594 C 53.398438 355.324219 51.574219 224.679688 161.175781 182.496094 C 209.167969 164.007812 255.078125 174.164062 306.914062 161.796875 C 362.269531 148.648438 426.28125 107.117188 452.332031 52.957031 C 481.503906 139.597656 516.605469 275.257812 453.699219 359.097656 Z M 453.699219 359.097656 "/>
</g>
</svg>
