<?xml version="1.0" encoding="UTF-8"?>
<svg xmlns="http://www.w3.org/2000/svg" xmlns:xlink="http://www.w3.org/1999/xlink" width="500px" height="930px" viewBox="0 0 500 930" version="1.1">
<g id="surface1">
<path style=" stroke:none;fill-rule:nonzero;fill:rgb(90.588235%,43.529412%,0%);fill-opacity:1;" d="M 478.9375 733.339844 L 475.433594 733.339844 L 475.433594 731.382812 L 484.867188 731.382812 L 484.867188 733.339844 L 481.382812 733.339844 L 481.382812 743.121094 L 478.9375 743.121094 Z M 497.746094 733.851562 L 497.691406 733.851562 L 494.21875 743.125 L 492.632812 743.125 L 489.183594 733.851562 L 489.140625 733.851562 L 489.140625 743.125 L 486.832031 743.125 L 486.832031 731.386719 L 490.230469 731.386719 L 493.425781 739.695312 L 496.613281 731.386719 L 500 731.386719 L 500 743.125 L 497.746094 743.125 Z M 497.746094 733.851562 "/>
<path style=" stroke:none;fill-rule:nonzero;fill:rgb(32.54902%,50.980392%,63.137255%);fill-opacity:1;" d="M 165.308594 493.316406 C 165.308594 493.316406 140.933594 507.492188 182.65625 512.289062 C 233.203125 518.054688 259.035156 517.226562 314.738281 506.683594 C 314.738281 506.683594 329.378906 515.867188 349.832031 523.820312 C 224.964844 577.332031 67.234375 520.71875 165.308594 493.316406 M 150.050781 423.488281 C 150.050781 423.488281 122.714844 443.722656 164.464844 448.039062 C 218.460938 453.609375 261.101562 454.066406 334.882812 439.859375 C 334.882812 439.859375 345.089844 450.207031 361.136719 455.863281 C 210.164062 500.007812 42.007812 459.34375 150.050781 423.488281 "/>
<path style=" stroke:none;fill-rule:nonzero;fill:rgb(90.588235%,43.529412%,0%);fill-opacity:1;" d="M 278.683594 305.03125 C 309.449219 340.453125 270.601562 372.328125 270.601562 372.328125 C 270.601562 372.328125 348.71875 332 312.84375 281.5 C 279.335938 234.40625 253.636719 211.007812 392.75 130.332031 C 392.753906 130.332031 174.386719 184.867188 278.683594 305.03125 "/>
<path style=" stroke:none;fill-rule:nonzero;fill:rgb(32.54902%,50.980392%,63.137255%);fill-opacity:1;" d="M 443.828125 544.96875 C 443.828125 544.96875 461.867188 559.832031 423.964844 571.328125 C 351.890625 593.160156 123.980469 599.753906 60.667969 572.199219 C 37.910156 562.296875 80.589844 548.558594 94.015625 545.675781 C 108.015625 542.636719 116.015625 543.203125 116.015625 543.203125 C 90.707031 525.375 -47.578125 578.210938 45.773438 593.34375 C 300.363281 634.628906 509.867188 574.753906 443.828125 544.96875 M 177.03125 351.132812 C 177.03125 351.132812 61.101562 378.667969 135.980469 388.667969 C 167.59375 392.898438 230.617188 391.941406 289.320312 387.023438 C 337.296875 382.976562 385.472656 374.375 385.472656 374.375 C 385.472656 374.375 368.554688 381.617188 356.316406 389.972656 C 238.59375 420.933594 11.171875 406.53125 76.644531 374.863281 C 132.011719 348.097656 177.03125 351.132812 177.03125 351.132812 M 384.996094 467.371094 C 504.664062 405.1875 449.335938 345.429688 410.714844 353.484375 C 401.246094 355.453125 397.027344 357.160156 397.027344 357.160156 C 397.027344 357.160156 400.542969 351.65625 407.25 349.273438 C 483.65625 322.414062 542.414062 428.492188 382.585938 470.507812 C 382.585938 470.507812 384.441406 468.851562 384.996094 467.371094 "/>
<path style=" stroke:none;fill-rule:nonzero;fill:rgb(90.588235%,43.529412%,0%);fill-opacity:1;" d="M 312.84375 0.0625 C 312.84375 0.0625 379.121094 66.351562 249.984375 168.296875 C 146.429688 250.070312 226.371094 296.695312 249.941406 349.96875 C 189.496094 295.433594 145.136719 247.429688 174.898438 202.75 C 218.574219 137.164062 339.585938 105.363281 312.84375 0.0625 "/>
<path style=" stroke:none;fill-rule:nonzero;fill:rgb(32.54902%,50.980392%,63.137255%);fill-opacity:1;" d="M 188.792969 635.871094 C 303.660156 643.222656 480.058594 631.789062 484.234375 577.441406 C 484.234375 577.441406 476.203125 598.042969 389.300781 614.40625 C 291.257812 632.855469 170.332031 630.703125 98.609375 618.878906 C 98.613281 618.875 113.296875 631.027344 188.792969 635.871094 "/>
<path style=" stroke:none;fill-rule:nonzero;fill:rgb(90.588235%,43.529412%,0%);fill-opacity:1;" d="M 169.964844 843.542969 C 159.128906 852.941406 147.683594 858.21875 137.414062 858.21875 C 122.753906 858.21875 114.832031 849.429688 114.832031 835.328125 C 114.832031 820.078125 123.320312 808.929688 157.367188 808.929688 L 169.964844 808.929688 L 169.964844 843.542969 M 199.867188 877.277344 L 199.867188 772.855469 C 199.867188 746.179688 184.652344 728.578125 147.964844 728.578125 C 126.550781 728.578125 107.789062 733.867188 92.542969 740.609375 L 96.945312 759.09375 C 108.949219 754.6875 124.488281 750.585938 139.742188 750.585938 C 160.875 750.585938 169.964844 759.09375 169.964844 776.683594 L 169.964844 789.882812 L 159.417969 789.882812 C 108.074219 789.882812 84.914062 809.8125 84.914062 839.726562 C 84.914062 865.542969 100.175781 880.21875 128.914062 880.21875 C 147.386719 880.21875 161.175781 872.589844 174.066406 861.429688 L 176.40625 877.28125 Z M 299.65625 877.277344 L 262.363281 877.277344 L 217.480469 731.222656 L 250.050781 731.222656 L 277.898438 820.957031 L 284.089844 847.945312 C 298.179688 808.925781 308.144531 769.339844 313.128906 731.222656 L 344.808594 731.222656 C 336.320312 779.316406 321.046875 832.105469 299.65625 877.277344 M 442.71875 843.542969 C 431.863281 852.941406 420.398438 858.21875 410.125 858.21875 C 395.492188 858.21875 387.550781 849.429688 387.550781 835.328125 C 387.550781 820.078125 396.054688 808.929688 430.097656 808.929688 L 442.71875 808.929688 L 442.71875 843.542969 M 472.617188 877.277344 L 472.617188 772.855469 C 472.617188 746.179688 457.363281 728.578125 420.71875 728.578125 C 399.289062 728.578125 380.523438 733.867188 365.28125 740.609375 L 369.675781 759.09375 C 381.6875 754.6875 397.253906 750.585938 412.496094 750.585938 C 433.613281 750.585938 442.71875 759.09375 442.71875 776.683594 L 442.71875 789.882812 L 432.152344 789.882812 C 380.792969 789.882812 357.640625 809.8125 357.640625 839.726562 C 357.640625 865.542969 372.894531 880.21875 401.625 880.21875 C 420.109375 880.21875 433.894531 872.589844 446.808594 861.429688 L 449.15625 877.28125 Z M 52.125 902.078125 C 43.601562 914.523438 29.835938 924.371094 14.761719 929.9375 L 0 912.566406 C 11.472656 906.679688 21.3125 897.175781 25.882812 888.320312 C 29.835938 880.445312 31.472656 870.296875 31.472656 846.023438 L 31.472656 679.277344 L 63.242188 679.277344 L 63.242188 843.738281 C 63.238281 876.1875 60.644531 889.296875 52.125 902.078125 "/>
</g>
</svg>
