<?xml version="1.0" encoding="UTF-8"?>
<svg xmlns="http://www.w3.org/2000/svg" xmlns:xlink="http://www.w3.org/1999/xlink" width="500px" height="319px" viewBox="0 0 500 319" version="1.1">
<defs>
<linearGradient id="linear0" gradientUnits="userSpaceOnUse" x1="1.511" y1="1.192" x2="1.657" y2="1.192" gradientTransform="matrix(107.802992,-63.738615,-63.698653,-107.870622,141.863218,420.909356)">
<stop offset="0" style="stop-color:rgb(56.470588%,61.176471%,66.27451%);stop-opacity:1;"/>
<stop offset="1" style="stop-color:rgb(92.941176%,92.941176%,93.333333%);stop-opacity:1;"/>
</linearGradient>
<linearGradient id="linear1" gradientUnits="userSpaceOnUse" x1="0.981" y1="-9.224" x2="1.127" y2="-9.224" gradientTransform="matrix(86.740815,0,0,-86.795232,144.084316,-779.919339)">
<stop offset="0" style="stop-color:rgb(57.647059%,62.352941%,67.058824%);stop-opacity:1;"/>
<stop offset="1" style="stop-color:rgb(86.27451%,87.058824%,88.235294%);stop-opacity:1;"/>
</linearGradient>
<radialGradient id="radial0" gradientUnits="userSpaceOnUse" cx="1.935" cy="2.23" fx="1.935" fy="2.23" r="0.146" gradientTransform="matrix(-110.59239,-16.62258,-33.597654,221.323432,581.94186,-382.667083)">
<stop offset="0" style="stop-color:rgb(93.333333%,20.784314%,17.254902%);stop-opacity:1;"/>
<stop offset="1" style="stop-color:rgb(66.27451%,11.372549%,13.333333%);stop-opacity:1;"/>
</radialGradient>
</defs>
<g id="surface1">
<path style=" stroke:none;fill-rule:nonzero;fill:url(#linear0);" d="M 321.492188 101.578125 L 277.96875 115.84375 L 240.066406 132.59375 L 229.480469 135.402344 C 226.78125 137.996094 223.972656 140.589844 220.839844 143.183594 C 217.492188 146.101562 214.363281 148.695312 211.984375 150.640625 C 209.285156 152.800781 205.398438 156.691406 203.347656 159.175781 C 200.324219 162.957031 197.945312 166.957031 196.976562 169.980469 C 195.140625 175.492188 196.003906 181.113281 199.566406 186.300781 C 203.996094 192.890625 212.957031 199.589844 223.324219 204.128906 C 228.617188 206.507812 237.582031 209.425781 244.277344 211.152344 C 255.398438 213.964844 277 217.097656 288.878906 217.53125 C 291.253906 217.636719 294.492188 217.636719 294.601562 217.53125 C 294.816406 217.3125 296.761719 213.855469 298.8125 209.425781 C 306.15625 194.511719 311.339844 180.464844 314.257812 168.578125 C 315.984375 161.335938 317.28125 151.71875 318.253906 140.265625 C 318.46875 137.023438 318.578125 126.324219 318.359375 122.757812 C 318.035156 116.816406 317.496094 112.0625 316.742188 107.304688 C 316.632812 106.65625 316.523438 106.007812 316.632812 106.007812 C 316.742188 105.902344 317.171875 105.792969 322.574219 104.28125 Z M 311.558594 107.414062 C 311.988281 107.414062 312.960938 117.570312 313.285156 123.949219 C 313.394531 125.246094 313.285156 126.21875 313.285156 126.21875 C 313.070312 126.21875 307.777344 123.082031 303.890625 120.707031 C 300.648438 118.652344 294.386719 114.4375 293.414062 113.679688 C 293.089844 113.464844 293.089844 113.464844 295.789062 112.492188 C 300.324219 110.871094 311.125 107.414062 311.558594 107.414062 Z M 289.308594 114.761719 C 289.632812 114.761719 290.390625 115.195312 292.226562 116.273438 C 299.03125 120.488281 308.210938 125.675781 312.203125 127.40625 C 313.394531 127.945312 313.5 127.730469 310.800781 129.675781 C 304.859375 133.78125 297.300781 137.78125 288.230469 141.777344 C 286.609375 142.535156 285.3125 143.074219 285.207031 143.074219 C 285.097656 143.074219 285.3125 142.210938 285.636719 141.238281 C 287.796875 133.023438 289.09375 124.703125 289.203125 118.113281 C 288.984375 114.761719 288.984375 114.761719 289.308594 114.761719 Z M 284.773438 116.492188 C 284.992188 116.707031 284.882812 124.054688 284.558594 126.109375 C 284.019531 130.863281 283.046875 135.402344 281.535156 140.480469 C 281.210938 141.667969 280.886719 142.75 280.777344 142.75 C 280.671875 142.964844 276.132812 138.535156 274.621094 136.808594 C 272.03125 133.890625 270.085938 130.863281 268.574219 127.945312 C 267.820312 126.433594 266.632812 123.515625 266.738281 123.515625 C 267.277344 123.082031 284.667969 116.382812 284.773438 116.492188 Z M 263.285156 124.921875 C 263.5 125.027344 263.714844 125.570312 263.824219 126.109375 C 264.902344 129.027344 267.277344 133.242188 269.332031 135.835938 C 271.597656 138.753906 274.515625 141.992188 276.890625 144.046875 C 277.648438 144.695312 278.402344 145.34375 278.511719 145.453125 C 278.726562 145.667969 278.726562 145.667969 273.433594 147.613281 C 267.171875 149.992188 260.476562 152.367188 252.699219 154.851562 C 250.863281 155.5 249.027344 156.042969 247.191406 156.691406 C 246.867188 156.796875 246.976562 156.582031 247.839844 155.285156 C 251.726562 149.234375 257.558594 137.457031 260.800781 129.027344 C 261.339844 127.621094 261.878906 126.109375 261.988281 125.785156 C 262.09375 125.351562 262.3125 125.136719 262.742188 124.921875 C 262.960938 125.027344 263.175781 124.921875 263.285156 124.921875 Z M 256.695312 127.621094 C 256.804688 127.730469 255.074219 131.1875 253.457031 134.429688 C 250.214844 140.695312 246.761719 146.75 242.117188 154.203125 C 241.359375 155.5 240.605469 156.691406 240.496094 156.796875 C 240.28125 157.015625 240.28125 157.015625 239.742188 155.933594 C 238.660156 153.773438 237.6875 150.855469 237.257812 148.261719 C 236.714844 145.667969 236.824219 141.238281 237.472656 138.429688 C 237.90625 136.375 237.90625 136.375 238.875 135.941406 C 242.871094 133.890625 256.480469 127.511719 256.695312 127.621094 Z M 313.394531 130 L 313.394531 131.402344 C 313.394531 138.753906 312.636719 148.800781 311.449219 156.148438 C 311.234375 157.445312 311.125 158.527344 311.015625 158.527344 C 311.015625 158.527344 310.046875 158.3125 308.964844 157.988281 C 303.996094 156.472656 298.707031 154.203125 293.847656 151.503906 C 290.605469 149.773438 285.960938 146.855469 286.179688 146.75 C 286.179688 146.75 287.582031 145.992188 289.203125 145.128906 C 295.683594 141.777344 301.835938 138.105469 307.238281 134.539062 C 309.289062 133.242188 312.3125 130.972656 312.960938 130.429688 Z M 231.855469 139.722656 C 231.964844 139.722656 231.964844 139.941406 231.75 141.128906 C 231.640625 141.992188 231.425781 143.613281 231.425781 144.695312 C 231.207031 149.449219 231.964844 153.015625 234.339844 157.878906 C 234.988281 159.175781 235.527344 160.363281 235.527344 160.363281 C 235.3125 160.582031 213.496094 166.957031 206.695312 168.792969 C 204.640625 169.332031 202.914062 169.875 202.699219 169.875 C 202.480469 169.980469 202.480469 169.875 202.480469 169.332031 C 203.238281 164.472656 206.910156 158.203125 212.09375 152.800781 C 215.550781 149.234375 218.25 147.179688 222.894531 144.480469 C 226.242188 142.75 231.316406 139.832031 231.855469 139.722656 C 231.75 139.722656 231.75 139.722656 231.855469 139.722656 Z M 283.15625 148.910156 C 283.15625 148.910156 284.019531 149.34375 284.882812 149.882812 C 291.902344 153.988281 301.730469 157.769531 310.046875 159.714844 L 310.800781 159.933594 L 309.722656 160.472656 C 305.292969 162.957031 290.929688 168.902344 276.242188 174.414062 C 274.082031 175.167969 272.03125 176.035156 271.597656 176.140625 C 271.167969 176.359375 270.84375 176.359375 270.84375 176.359375 C 270.84375 176.359375 271.382812 175.167969 272.140625 173.765625 C 276.242188 166.09375 280.347656 156.691406 282.507812 150.207031 C 282.9375 149.449219 283.15625 148.910156 283.15625 148.910156 Z M 277.96875 150.640625 C 277.96875 150.640625 277.753906 151.394531 277.429688 152.152344 C 274.515625 159.066406 270.84375 166.632812 265.984375 175.167969 C 264.796875 177.332031 263.714844 179.058594 263.714844 179.058594 C 263.714844 179.058594 262.742188 178.519531 261.554688 177.761719 C 254.535156 173.441406 248.378906 168.253906 244.382812 163.066406 L 243.84375 162.308594 L 246.867188 161.445312 C 257.558594 158.527344 266.738281 155.394531 275.8125 151.503906 C 276.78125 151.070312 277.863281 150.640625 277.96875 150.640625 Z M 310.476562 161.984375 C 310.476562 162.742188 308.855469 169.550781 307.453125 174.414062 C 306.265625 178.519531 305.292969 181.761719 303.457031 187.488281 C 302.703125 189.972656 301.945312 192.027344 301.945312 192.027344 C 301.945312 192.027344 301.730469 192.027344 301.511719 191.917969 C 291.792969 190.191406 282.9375 187.703125 274.730469 184.355469 C 272.460938 183.382812 269.113281 181.976562 268.898438 181.761719 C 268.792969 181.652344 270.84375 180.789062 273.328125 179.707031 C 288.339844 173.117188 303.78125 165.769531 309.179688 162.527344 C 309.828125 162.203125 310.367188 161.984375 310.476562 161.984375 Z M 235.421875 164.578125 C 235.527344 164.6875 231.316406 170.628906 225.484375 178.84375 C 223.433594 181.761719 221.058594 185.109375 220.195312 186.300781 C 219.328125 187.597656 217.925781 189.542969 217.167969 190.730469 L 215.765625 192.890625 L 214.253906 191.59375 C 212.527344 190.191406 209.503906 187.054688 208.097656 185.328125 C 205.289062 181.761719 203.347656 178.085938 202.589844 174.738281 C 202.265625 173.117188 202.265625 172.359375 202.589844 172.25 C 203.128906 172.144531 211.878906 170.089844 220.085938 168.144531 C 224.621094 167.0625 229.914062 165.875 231.855469 165.335938 C 233.800781 164.902344 235.3125 164.578125 235.421875 164.578125 Z M 239.632812 166.199219 L 240.710938 167.386719 C 245.464844 172.683594 250.324219 176.574219 256.15625 180.03125 C 257.234375 180.570312 257.992188 181.113281 257.882812 181.21875 C 257.667969 181.4375 237.582031 188.570312 228.183594 191.703125 C 223 193.539062 218.679688 195.050781 218.574219 195.050781 L 217.925781 194.621094 L 217.386719 194.1875 L 218.359375 192.78125 C 221.488281 188.351562 225.378906 183.382812 233.800781 173.222656 Z M 265.875 185.003906 C 265.875 185.003906 267.386719 185.542969 269.113281 186.191406 C 273.433594 187.8125 276.78125 188.785156 281.320312 189.972656 C 286.933594 191.378906 295.035156 192.78125 299.785156 193.214844 C 300.542969 193.324219 300.867188 193.324219 300.757812 193.429688 C 300.542969 193.539062 295.683594 195.160156 292.117188 196.347656 C 286.503906 198.078125 269.222656 203.265625 255.074219 207.261719 C 252.484375 208.019531 250.214844 208.667969 250.109375 208.667969 C 249.785156 208.777344 248.703125 208.453125 248.703125 208.34375 C 248.703125 208.234375 249.460938 207.261719 250.433594 206.183594 C 255.183594 200.5625 259.828125 194.1875 263.824219 188.246094 C 264.902344 186.300781 265.875 185.003906 265.875 185.003906 Z M 260.042969 185.109375 C 260.042969 185.109375 257.777344 188.894531 253.671875 195.375 C 251.945312 198.078125 250 201.210938 249.242188 202.292969 C 248.597656 203.375 247.625 204.996094 247.085938 205.96875 L 246.113281 207.695312 L 245.570312 207.585938 C 244.382812 207.261719 236.070312 204.347656 233.910156 203.480469 C 231.207031 202.402344 228.402344 201.105469 226.242188 199.914062 C 223.648438 198.511719 220.300781 196.347656 220.625 196.347656 C 220.734375 196.347656 225.160156 195.050781 230.667969 193.648438 C 245.03125 189.757812 253.023438 187.488281 258.316406 185.757812 C 259.179688 185.328125 260.042969 185.109375 260.042969 185.109375 Z M 300.972656 194.726562 C 301.1875 195.050781 295.789062 209.855469 293.847656 214.503906 C 293.414062 215.585938 293.304688 215.800781 292.980469 215.800781 C 292.441406 215.800781 284.667969 214.71875 280.023438 213.964844 C 271.816406 212.667969 258.097656 210.289062 254.644531 209.53125 L 253.886719 209.316406 L 258.746094 208.234375 C 269.332031 205.859375 274.296875 204.5625 279.484375 203.050781 C 285.960938 201.105469 292.332031 198.617188 298.8125 195.59375 C 299.894531 195.160156 300.757812 194.726562 300.972656 194.726562 Z M 300.972656 194.726562 "/>
<path style=" stroke:none;fill-rule:nonzero;fill:url(#linear1);" d="M 276.566406 0.109375 C 275.8125 0 264.148438 4.214844 256.585938 7.238281 C 246.4375 11.347656 238.550781 15.34375 233.691406 18.804688 C 231.855469 20.097656 229.589844 22.367188 229.265625 23.234375 C 229.15625 23.558594 229.050781 23.988281 229.050781 24.3125 L 233.476562 28.527344 L 243.953125 31.878906 L 268.898438 36.308594 L 297.410156 41.171875 L 297.734375 38.6875 L 297.519531 38.6875 L 293.738281 38.144531 L 292.980469 36.847656 C 289.09375 30.042969 284.773438 21.503906 282.289062 15.777344 C 280.347656 11.347656 278.511719 6.160156 277.539062 2.484375 C 277 0.214844 276.890625 0.109375 276.566406 0.109375 Z M 276.027344 1.730469 C 276.132812 1.730469 276.242188 2.703125 276.351562 3.78125 C 276.890625 8.429688 277.96875 12.859375 279.589844 17.613281 C 280.777344 21.289062 280.777344 21.070312 279.375 20.640625 C 276.027344 19.667969 261.015625 17.074219 250.109375 15.5625 C 248.378906 15.34375 246.867188 15.128906 246.867188 15.019531 C 246.761719 14.914062 254.75 10.699219 258.207031 9.078125 C 262.742188 7.023438 275.164062 1.945312 276.027344 1.730469 Z M 244.277344 16.535156 L 245.570312 16.964844 C 252.59375 19.34375 270.085938 22.691406 279.804688 23.449219 C 280.886719 23.558594 281.859375 23.664062 281.859375 23.664062 C 281.859375 23.664062 280.996094 24.207031 279.804688 24.746094 C 275.164062 27.125 269.980469 29.933594 266.414062 32.203125 C 265.335938 32.851562 264.363281 33.390625 264.253906 33.390625 C 264.148438 33.390625 263.390625 33.28125 262.742188 33.175781 L 261.449219 32.960938 L 258.207031 29.71875 C 252.375 24.097656 247.839844 19.777344 246.113281 18.046875 Z M 242.980469 17.507812 L 247.625 23.339844 C 250.109375 26.582031 252.699219 29.609375 253.238281 30.367188 C 253.78125 31.015625 254.210938 31.664062 254.210938 31.664062 C 254.105469 31.769531 247.515625 30.472656 244.058594 29.71875 C 240.496094 28.851562 238.984375 28.527344 236.824219 27.773438 L 234.988281 27.230469 L 234.988281 26.800781 C 234.988281 24.636719 237.796875 21.289062 242.546875 17.9375 Z M 282.398438 25.394531 C 282.507812 25.394531 282.722656 25.71875 283.046875 26.582031 C 284.125 29.070312 287.691406 35.660156 288.554688 36.957031 C 288.769531 37.390625 289.308594 37.390625 284.667969 36.632812 C 273.542969 34.796875 269.980469 34.253906 269.980469 34.148438 C 269.980469 34.148438 270.304688 33.929688 270.734375 33.605469 C 274.191406 31.664062 277.648438 29.285156 280.777344 26.691406 C 281.535156 26.042969 282.183594 25.503906 282.398438 25.394531 C 282.289062 25.394531 282.398438 25.394531 282.398438 25.394531 Z M 282.398438 25.394531 "/>
<path style=" stroke:none;fill-rule:nonzero;fill:url(#radial0);" d="M 229.480469 22.691406 C 229.480469 22.691406 228.726562 23.882812 229.480469 25.609375 C 229.914062 26.691406 231.207031 27.988281 232.613281 29.285156 C 232.613281 29.285156 247.300781 43.550781 249.027344 45.601562 C 257.128906 55.003906 260.691406 64.1875 261.015625 76.832031 C 261.230469 85.046875 259.71875 92.175781 255.832031 100.496094 C 249.027344 115.410156 234.558594 131.945312 212.308594 150.207031 L 215.550781 149.125 C 217.601562 147.503906 220.515625 145.882812 227.214844 142.210938 C 242.765625 133.671875 260.152344 125.894531 281.535156 117.894531 C 312.3125 106.332031 362.960938 92.71875 391.796875 88.285156 L 394.820312 87.855469 L 394.390625 87.097656 C 391.796875 82.992188 389.960938 80.507812 387.800781 77.804688 C 381.539062 69.917969 373.871094 63.648438 364.472656 58.355469 C 351.621094 51.113281 334.882812 45.496094 313.71875 41.28125 C 309.722656 40.523438 300.972656 39.011719 293.847656 37.929688 C 278.726562 35.550781 269.007812 33.929688 258.316406 32.09375 C 254.429688 31.445312 248.703125 30.472656 244.925781 29.609375 C 242.980469 29.175781 239.199219 28.3125 236.175781 27.230469 C 233.585938 26.476562 230.238281 25.503906 229.480469 22.691406 Z M 238.011719 31.015625 C 238.011719 31.015625 238.550781 31.230469 239.308594 31.445312 C 240.605469 31.878906 242.222656 32.417969 244.058594 32.851562 C 245.464844 33.28125 246.976562 33.605469 248.378906 34.039062 C 250.324219 34.578125 252.050781 35.011719 252.050781 35.011719 C 252.269531 35.226562 255.617188 45.925781 256.695312 49.925781 C 257.128906 51.4375 257.453125 52.84375 257.453125 52.84375 C 257.453125 52.84375 257.019531 52.300781 256.585938 51.546875 C 252.699219 44.738281 246.652344 37.929688 239.632812 32.3125 C 238.660156 31.554688 238.011719 31.015625 238.011719 31.015625 Z M 254.210938 35.445312 C 254.429688 35.445312 255.074219 35.550781 255.941406 35.769531 C 261.554688 37.066406 271.597656 38.902344 277.96875 39.984375 C 279.050781 40.199219 279.914062 40.308594 279.914062 40.414062 C 279.914062 40.523438 279.484375 40.738281 279.050781 40.957031 C 277.96875 41.496094 273.542969 44.089844 272.140625 45.0625 C 268.46875 47.546875 265.226562 50.140625 262.851562 52.519531 L 261.125 54.246094 C 261.125 54.246094 260.90625 53.707031 260.800781 52.949219 C 259.613281 48.410156 257.128906 41.605469 254.859375 36.847656 C 254.429688 36.199219 254.105469 35.445312 254.210938 35.445312 C 254.105469 35.445312 254.105469 35.445312 254.210938 35.445312 Z M 282.613281 40.847656 C 282.832031 40.957031 283.15625 42.035156 283.800781 44.523438 C 284.992188 49.277344 285.53125 54.679688 285.421875 59.652344 C 285.3125 61.054688 285.3125 62.351562 285.207031 62.460938 L 285.097656 62.785156 L 283.371094 62.242188 C 279.804688 61.164062 274.082031 59.433594 269.222656 58.03125 C 266.414062 57.273438 264.148438 56.625 264.148438 56.515625 C 264.148438 56.300781 268.25 52.195312 269.980469 50.679688 C 273.328125 47.761719 282.398438 40.738281 282.613281 40.847656 Z M 284.882812 41.171875 C 284.992188 41.0625 298.488281 43.441406 304.644531 44.628906 C 309.179688 45.496094 315.875 46.898438 316.308594 47.113281 C 316.523438 47.222656 315.769531 47.546875 313.609375 48.519531 C 304.96875 52.410156 298.488281 55.976562 292.011719 60.191406 C 290.28125 61.269531 288.878906 62.242188 288.878906 62.242188 C 288.878906 62.242188 288.769531 61.269531 288.769531 60.191406 C 288.769531 53.921875 287.472656 47.65625 285.207031 42.253906 C 285.097656 41.710938 284.882812 41.28125 284.882812 41.171875 Z M 319.871094 48.085938 C 319.980469 48.195312 319.546875 50.898438 319.117188 52.410156 C 317.929688 57.273438 314.6875 64.621094 310.800781 71.429688 C 310.152344 72.617188 309.503906 73.589844 309.398438 73.699219 C 309.289062 73.699219 308.425781 73.265625 307.453125 72.617188 C 303.671875 70.347656 299.246094 68.296875 294.601562 66.351562 C 293.304688 65.808594 292.117188 65.378906 292.117188 65.269531 C 291.902344 65.054688 302.484375 58.03125 308.101562 54.679688 C 312.527344 51.976562 319.765625 47.980469 319.871094 48.085938 Z M 322.355469 48.519531 C 322.679688 48.519531 328.621094 50.140625 331.75 51.113281 C 339.527344 53.382812 348.382812 56.625 354.105469 59.328125 L 356.484375 60.40625 L 354.753906 60.839844 C 340.609375 64.082031 328.511719 67.863281 316.847656 72.617188 C 315.875 73.050781 315.011719 73.375 315.011719 73.375 C 314.90625 73.375 315.230469 72.617188 315.660156 71.644531 C 319.222656 64.1875 321.492188 56.410156 322.03125 49.707031 C 322.25 49.058594 322.355469 48.519531 322.355469 48.519531 Z M 262.742188 62.242188 C 262.851562 62.136719 267.386719 63.214844 269.871094 63.972656 C 273.652344 65.054688 281.535156 67.648438 281.535156 67.863281 C 281.535156 67.863281 280.671875 68.621094 279.589844 69.59375 C 275.269531 73.15625 271.167969 76.941406 266.199219 81.804688 C 264.6875 83.207031 263.5 84.398438 263.390625 84.398438 C 263.285156 84.398438 263.285156 84.179688 263.285156 83.964844 C 264.039062 78.453125 263.824219 71.320312 262.851562 64.082031 C 262.851562 63 262.742188 62.242188 262.742188 62.242188 Z M 358.859375 62.351562 C 358.964844 62.460938 356.699219 65.808594 355.402344 67.753906 C 353.457031 70.566406 350.542969 74.347656 343.957031 82.558594 C 340.5 86.882812 336.613281 91.851562 335.316406 93.472656 C 334.019531 95.09375 332.941406 96.5 332.832031 96.5 C 332.832031 96.5 332.398438 95.960938 331.859375 95.203125 C 328.1875 89.691406 323.761719 84.828125 318.578125 80.507812 C 317.605469 79.640625 316.523438 78.777344 316.09375 78.5625 C 315.769531 78.34375 315.445312 78.019531 315.445312 78.019531 C 315.445312 77.914062 321.058594 75.535156 325.273438 73.804688 C 332.722656 70.78125 342.875 67.105469 350.433594 64.835938 C 354.539062 63.433594 358.859375 62.242188 358.859375 62.351562 Z M 361.449219 63 C 361.558594 63 362.421875 63.324219 363.285156 63.972656 C 371.277344 68.511719 379.160156 74.453125 385.316406 80.507812 C 387.046875 82.234375 391.363281 86.664062 391.257812 86.773438 C 391.257812 86.773438 389.746094 86.882812 388.015625 86.988281 C 374.195312 88.070312 356.484375 90.988281 339.417969 95.09375 C 338.230469 95.3125 337.257812 95.636719 337.152344 95.636719 C 337.042969 95.636719 338.339844 94.339844 339.960938 92.824219 C 350.003906 83.207031 354.539062 77.046875 359.9375 66.242188 C 360.695312 64.40625 361.34375 63.109375 361.449219 63 C 361.34375 63 361.34375 63 361.449219 63 Z M 288.121094 70.457031 C 288.554688 70.566406 292.875 72.617188 296.113281 74.128906 C 299.03125 75.644531 303.566406 78.019531 303.78125 78.128906 C 303.78125 78.128906 302.269531 78.992188 300.324219 79.964844 C 294.167969 83.101562 288.878906 86.019531 283.261719 89.367188 C 281.640625 90.339844 280.347656 91.097656 280.347656 91.097656 C 280.238281 91.097656 280.238281 90.988281 281.101562 89.367188 C 284.019531 83.964844 286.394531 77.480469 287.796875 71.214844 C 287.90625 70.78125 288.015625 70.457031 288.121094 70.457031 Z M 283.910156 71.320312 C 284.019531 71.429688 282.9375 75.425781 282.183594 77.695312 C 280.886719 81.910156 278.511719 87.097656 276.351562 91.097656 C 275.8125 92.070312 275.054688 93.367188 274.621094 94.121094 L 273.757812 95.417969 L 271.921875 93.691406 C 269.761719 91.636719 268.035156 90.339844 265.765625 89.152344 C 264.902344 88.71875 264.148438 88.285156 264.148438 88.179688 C 264.148438 87.960938 269.761719 82.777344 274.082031 79.101562 C 277.214844 76.398438 283.800781 71.214844 283.910156 71.320312 Z M 310.046875 82.019531 L 311.664062 83.101562 C 315.335938 85.476562 319.65625 88.71875 323.003906 91.527344 C 324.839844 93.042969 328.511719 96.285156 329.269531 97.148438 L 329.699219 97.582031 L 327 98.335938 C 311.882812 102.550781 300.324219 106.226562 286.71875 111.195312 C 285.207031 111.738281 283.910156 112.167969 283.800781 112.167969 C 283.585938 112.167969 283.476562 112.386719 286.824219 109.25 C 295.464844 101.253906 303.242188 92.394531 308.964844 83.855469 Z M 303.132812 83.75 C 303.242188 83.855469 298.707031 90.125 296.003906 93.796875 C 292.765625 98.121094 287.042969 105.253906 283.15625 109.898438 C 281.535156 111.84375 280.128906 113.464844 280.023438 113.464844 C 279.914062 113.464844 279.914062 113.03125 279.914062 112.277344 C 279.914062 108.277344 278.941406 104.0625 277.105469 100.390625 C 276.351562 98.878906 276.242188 98.554688 276.351562 98.335938 C 277 97.796875 286.503906 92.285156 292.65625 89.042969 C 296.652344 86.882812 303.023438 83.640625 303.132812 83.75 Z M 261.554688 93.90625 C 261.664062 93.90625 262.417969 94.339844 263.285156 94.769531 C 265.335938 95.960938 267.277344 97.257812 268.898438 98.554688 C 269.007812 98.660156 268.144531 99.308594 266.957031 100.171875 C 263.824219 102.441406 259.070312 106.007812 256.371094 108.171875 C 253.457031 110.441406 253.347656 110.546875 253.671875 110.007812 C 255.832031 106.65625 256.910156 104.820312 258.097656 102.441406 C 259.070312 100.28125 260.152344 97.796875 260.90625 95.527344 C 261.125 94.664062 261.449219 93.90625 261.554688 93.90625 Z M 272.679688 102.660156 C 272.894531 102.660156 273.003906 102.875 273.976562 104.28125 C 275.8125 107.089844 277.324219 110.871094 277.648438 113.898438 L 277.753906 114.546875 L 273.21875 116.273438 C 265.121094 119.410156 257.667969 122.542969 252.699219 124.8125 C 251.296875 125.460938 248.8125 126.648438 247.191406 127.40625 C 245.570312 128.269531 244.277344 128.808594 244.277344 128.808594 C 244.277344 128.808594 245.25 128.054688 246.542969 127.082031 C 256.371094 119.949219 264.902344 112.0625 271.273438 104.28125 C 271.921875 103.414062 272.570312 102.660156 272.679688 102.660156 Z M 267.601562 103.847656 C 267.710938 103.957031 263.929688 108.277344 261.449219 110.871094 C 255.074219 117.355469 248.8125 122.433594 241.035156 127.40625 C 240.066406 128.054688 239.199219 128.59375 239.09375 128.703125 C 238.875 128.808594 239.199219 128.484375 242.546875 124.8125 C 244.707031 122.433594 246.328125 120.488281 248.273438 118.113281 C 249.566406 116.492188 249.785156 116.273438 251.511719 114.976562 C 256.265625 111.304688 267.386719 103.738281 267.601562 103.847656 Z M 267.601562 103.847656 "/>
<path style=" stroke:none;fill-rule:nonzero;fill:rgb(13.72549%,12.156863%,12.156863%);fill-opacity:1;" d="M 125.050781 240.222656 C 124.402344 240.222656 123.863281 240.332031 123.214844 240.332031 C 110.902344 240.980469 102.695312 246.382812 97.835938 256.972656 C 93.730469 266.480469 94.164062 279.015625 97.835938 288.527344 C 102.15625 297.929688 109.175781 302.898438 120.839844 304.734375 C 123.324219 305.167969 124.941406 306.464844 129.800781 312.085938 L 135.742188 319 L 146.433594 319 L 139.304688 311.867188 C 135.417969 307.976562 132.179688 304.519531 132.179688 304.195312 C 132.179688 303.871094 133.691406 303.222656 135.527344 302.683594 C 141.574219 300.84375 146.542969 296.199219 149.996094 289.066406 C 152.804688 283.339844 153.238281 281.609375 153.667969 274.476562 C 154.75 253.296875 143.625 240.113281 125.050781 240.222656 Z M 134.445312 295.550781 C 129.261719 298.035156 121.703125 298.578125 116.734375 296.738281 C 111.660156 294.902344 106.691406 289.605469 104.421875 283.554688 C 101.9375 276.964844 102.261719 264.859375 105.179688 259.457031 C 109.714844 250.8125 115.761719 246.8125 124.511719 246.8125 C 137.46875 246.8125 144.921875 254.8125 145.894531 269.722656 C 146.648438 282.257812 142.4375 291.660156 134.445312 295.550781 Z M 319.222656 258.269531 C 314.6875 258.269531 311.339844 260.105469 308.964844 263.671875 L 307.128906 266.480469 L 307.128906 259.132812 L 299.355469 259.132812 L 299.355469 303.332031 L 307.128906 303.332031 L 307.128906 289.175781 C 307.128906 276.207031 307.238281 274.695312 309.074219 271.238281 C 311.558594 266.375 315.875 263.996094 319.980469 265.078125 L 322.789062 265.832031 L 322.789062 258.160156 Z M 273.652344 257.835938 C 272.140625 257.835938 270.519531 258.054688 268.898438 258.378906 C 258.53125 261.078125 252.699219 271.019531 253.023438 281.285156 C 253.023438 289.824219 254.644531 294.144531 258.855469 298.683594 C 267.277344 305.601562 274.945312 306.140625 285.3125 302.464844 C 287.042969 301.710938 288.984375 300.84375 288.984375 300.84375 L 288.984375 293.929688 L 285.3125 295.875 C 277 299.546875 270.628906 299.546875 265.550781 295.226562 C 262.3125 291.984375 260.90625 287.984375 260.257812 283.554688 L 291.578125 283.554688 L 291.578125 277.613281 C 291.578125 265.402344 284.234375 257.730469 273.652344 257.835938 Z M 261.015625 277.289062 C 261.015625 277.289062 262.203125 269.722656 266.414062 266.699219 C 268.46875 265.292969 270.84375 264.535156 273.21875 264.535156 C 275.59375 264.535156 277.863281 265.292969 279.804688 266.804688 C 283.695312 269.832031 284.449219 277.289062 284.449219 277.289062 Z M 73.753906 269.292969 C 65.328125 264.210938 61.550781 260.539062 62.089844 256.214844 C 63.386719 244.222656 78.179688 245.84375 86.386719 250.378906 L 86.496094 242.277344 C 86.496094 242.277344 81.960938 240.332031 75.480469 240.222656 C 65.546875 240.113281 59.066406 243.355469 56.042969 250.054688 C 51.613281 259.890625 55.5 267.347656 69.757812 275.558594 C 77.75 280.207031 81.3125 284.203125 81.3125 288.632812 C 81.3125 297.710938 70.40625 300.84375 59.066406 295.226562 C 56.691406 294.039062 54.746094 293.066406 54.636719 293.066406 C 54.207031 295.660156 54.421875 301.816406 54.421875 301.816406 C 54.421875 301.816406 57.878906 303.222656 63.0625 304.304688 C 76.019531 306.898438 87.683594 300.84375 88.871094 291.011719 C 89.734375 281.71875 86.386719 276.855469 73.753906 269.292969 Z M 388.015625 257.835938 C 386.503906 257.835938 384.886719 258.054688 383.265625 258.378906 C 372.898438 261.078125 367.066406 271.019531 367.390625 281.285156 C 367.390625 289.824219 369.011719 294.144531 373.222656 298.578125 C 381.644531 305.492188 389.3125 306.140625 399.789062 302.359375 C 401.515625 301.601562 403.460938 300.738281 403.460938 300.738281 L 403.460938 293.820312 L 399.789062 295.765625 C 391.363281 299.441406 385.101562 299.441406 380.027344 295.117188 C 376.785156 291.875 375.382812 287.984375 374.734375 283.449219 L 405.945312 283.449219 L 405.945312 277.503906 C 405.945312 265.292969 398.601562 257.621094 388.015625 257.835938 Z M 375.273438 277.179688 C 375.273438 277.179688 376.460938 269.617188 380.671875 266.589844 C 382.726562 265.078125 385.101562 264.429688 387.367188 264.429688 C 389.636719 264.429688 392.011719 265.183594 393.957031 266.699219 C 397.84375 269.722656 398.601562 277.179688 398.601562 277.179688 Z M 232.9375 269.398438 C 224.511719 264.320312 220.839844 260.644531 221.273438 256.324219 C 222.570312 244.328125 237.363281 245.949219 245.570312 250.488281 L 245.679688 242.382812 C 245.679688 242.382812 241.144531 240.4375 234.664062 240.332031 C 224.730469 240.222656 218.25 243.464844 215.226562 250.164062 C 210.796875 259.996094 214.792969 267.453125 228.941406 275.667969 C 236.933594 280.3125 240.386719 284.3125 240.386719 288.632812 C 240.386719 297.710938 229.480469 300.953125 218.140625 295.226562 C 215.875 294.039062 213.820312 293.066406 213.714844 293.066406 C 213.28125 295.660156 213.496094 301.816406 213.496094 301.816406 C 213.496094 301.816406 216.953125 303.222656 222.136719 304.304688 C 235.097656 306.898438 246.761719 300.84375 247.949219 291.011719 C 248.921875 281.828125 245.570312 276.964844 232.9375 269.398438 Z M 433.589844 258.160156 C 429.054688 258.160156 425.597656 259.996094 423.332031 263.5625 L 421.496094 266.375 L 421.496094 259.027344 L 413.71875 259.027344 L 413.71875 303.222656 L 421.496094 303.222656 L 421.496094 289.175781 C 421.496094 276.207031 421.601562 274.695312 423.4375 271.238281 C 425.921875 266.375 430.242188 263.996094 434.347656 265.183594 L 437.15625 265.941406 L 437.15625 258.269531 Z M 171.164062 269.183594 L 171.164062 240.980469 L 163.386719 240.980469 L 163.386719 303.332031 L 196.328125 303.332031 L 196.328125 295.984375 L 171.273438 295.984375 Z M 352.269531 277.9375 L 345.792969 294.6875 L 339.636719 277.828125 L 333.371094 259.132812 L 325.378906 259.132812 C 330.5625 273.828125 336.179688 288.851562 341.902344 303.332031 C 344.386719 303.4375 346.871094 303.332031 349.355469 303.332031 L 358.101562 281.394531 L 366.957031 259.027344 L 359.289062 259.027344 C 359.183594 259.132812 355.835938 267.996094 352.269531 277.9375 Z M 189.308594 224.011719 C 190.601562 224.011719 191.574219 223.582031 192.4375 222.714844 C 193.304688 221.851562 193.734375 220.878906 193.734375 219.582031 C 193.734375 218.285156 193.304688 217.3125 192.4375 216.449219 C 191.574219 215.691406 190.601562 215.261719 189.308594 215.261719 C 188.011719 215.261719 186.929688 215.691406 186.175781 216.558594 C 185.3125 217.421875 184.878906 218.503906 184.878906 219.691406 C 184.878906 220.988281 185.3125 222.066406 186.175781 222.824219 C 186.929688 223.582031 188.011719 224.011719 189.308594 224.011719 Z M 186.5 216.773438 C 187.253906 216.015625 188.117188 215.691406 189.308594 215.691406 C 190.386719 215.691406 191.359375 216.015625 192.113281 216.773438 C 192.871094 217.53125 193.304688 218.394531 193.304688 219.582031 C 193.304688 220.664062 192.871094 221.636719 192.113281 222.390625 C 191.359375 223.148438 190.386719 223.472656 189.308594 223.472656 C 188.226562 223.472656 187.253906 223.148438 186.5 222.390625 C 185.742188 221.636719 185.3125 220.664062 185.3125 219.582031 C 185.417969 218.503906 185.742188 217.53125 186.5 216.773438 Z M 188.335938 220.015625 L 188.875 220.015625 C 189.199219 220.015625 189.632812 220.339844 189.847656 220.988281 L 190.496094 222.390625 L 191.46875 222.390625 L 190.710938 220.878906 C 190.386719 220.230469 190.0625 219.90625 189.738281 219.796875 C 190.171875 219.691406 190.496094 219.582031 190.820312 219.257812 C 191.035156 219.042969 191.144531 218.609375 191.144531 218.285156 C 191.144531 217.855469 191.035156 217.53125 190.710938 217.207031 C 190.386719 216.882812 189.847656 216.773438 189.089844 216.773438 L 187.472656 216.773438 L 187.472656 222.390625 L 188.226562 222.390625 Z M 188.335938 217.421875 L 189.089844 217.421875 C 189.632812 217.421875 189.953125 217.53125 190.171875 217.636719 C 190.386719 217.746094 190.386719 217.960938 190.386719 218.394531 C 190.386719 219.042969 189.953125 219.367188 189.199219 219.367188 L 188.335938 219.367188 Z M 59.066406 219.472656 C 59.066406 217.53125 58.957031 216.015625 58.957031 215.152344 C 59.171875 216.125 59.390625 216.882812 59.605469 217.421875 L 67.164062 234.171875 L 68.460938 234.171875 L 76.019531 217.207031 C 76.238281 216.773438 76.453125 216.015625 76.667969 215.042969 L 76.777344 215.042969 C 76.667969 216.773438 76.5625 218.179688 76.5625 219.367188 L 76.5625 234.171875 L 79.152344 234.171875 L 79.152344 212.125 L 75.914062 212.125 L 68.894531 227.578125 C 68.675781 228.226562 68.246094 229.09375 67.8125 230.28125 L 67.707031 230.28125 C 67.597656 229.632812 67.164062 228.769531 66.734375 227.6875 L 59.929688 212.234375 L 56.472656 212.234375 L 56.472656 234.277344 L 58.957031 234.277344 Z M 84.660156 219.582031 L 86.929688 219.582031 L 86.929688 233.304688 L 84.660156 233.304688 Z M 85.742188 214.503906 C 86.171875 214.503906 86.605469 214.394531 86.929688 214.070312 C 87.253906 213.746094 87.46875 213.421875 87.46875 212.882812 C 87.46875 212.449219 87.359375 212.019531 86.929688 211.695312 C 86.605469 211.371094 86.171875 211.261719 85.742188 211.261719 C 85.308594 211.261719 84.875 211.371094 84.550781 211.695312 C 84.226562 212.019531 84.011719 212.449219 84.011719 212.882812 C 84.011719 213.421875 84.121094 213.746094 84.550781 214.070312 C 84.875 214.394531 85.308594 214.503906 85.742188 214.503906 Z M 102.695312 233.523438 L 102.695312 231.144531 C 101.507812 232.011719 100.210938 232.550781 98.808594 232.550781 C 97.1875 232.550781 95.890625 232.011719 94.917969 230.929688 C 93.949219 229.847656 93.40625 228.445312 93.40625 226.605469 C 93.40625 224.660156 93.949219 223.148438 94.917969 222.066406 C 95.890625 220.988281 97.296875 220.445312 98.808594 220.445312 C 100.105469 220.445312 101.398438 220.878906 102.585938 221.636719 L 102.585938 218.933594 C 101.507812 218.394531 100.320312 218.179688 98.914062 218.179688 C 96.433594 218.179688 94.378906 218.933594 92.976562 220.554688 C 91.570312 222.066406 90.816406 224.230469 90.816406 226.824219 C 90.816406 229.09375 91.464844 231.039062 92.867188 232.441406 C 94.273438 233.953125 96.109375 234.710938 98.269531 234.710938 C 100.105469 234.601562 101.507812 234.277344 102.695312 233.523438 Z M 109.066406 226.28125 C 109.066406 224.445312 109.5 223.039062 110.253906 221.960938 C 111.011719 221.09375 111.765625 220.554688 112.847656 220.554688 C 113.710938 220.554688 114.359375 220.664062 114.789062 221.09375 L 114.789062 218.503906 C 114.46875 218.394531 113.925781 218.285156 113.277344 218.285156 C 112.414062 218.285156 111.550781 218.609375 110.902344 219.152344 C 110.148438 219.796875 109.5 220.664062 109.175781 221.851562 L 109.066406 221.851562 L 109.066406 218.609375 L 106.582031 218.609375 L 106.582031 234.386719 L 109.066406 234.386719 Z M 123.539062 234.601562 C 125.914062 234.601562 127.859375 233.847656 129.261719 232.335938 C 130.664062 230.820312 131.421875 228.769531 131.421875 226.28125 C 131.421875 223.6875 130.773438 221.742188 129.476562 220.230469 C 128.183594 218.71875 126.347656 218.070312 123.96875 218.070312 C 121.59375 218.070312 119.652344 218.828125 118.246094 220.121094 C 116.734375 221.636719 115.980469 223.796875 115.980469 226.5 C 115.980469 228.875 116.625 230.820312 118.03125 232.335938 C 119.328125 233.847656 121.164062 234.601562 123.539062 234.601562 Z M 119.972656 221.851562 C 120.945312 220.878906 122.242188 220.339844 123.753906 220.339844 C 125.375 220.339844 126.5625 220.878906 127.535156 221.851562 C 128.398438 222.933594 128.9375 224.445312 128.9375 226.390625 C 128.9375 228.335938 128.507812 229.847656 127.640625 230.820312 C 126.777344 231.902344 125.480469 232.441406 123.863281 232.441406 C 122.242188 232.441406 120.945312 231.902344 119.972656 230.820312 C 119.003906 229.742188 118.570312 228.335938 118.570312 226.390625 C 118.460938 224.445312 118.894531 222.933594 119.972656 221.851562 Z M 142.328125 233.304688 C 143.300781 232.441406 143.839844 231.363281 143.839844 230.066406 C 143.839844 228.875 143.410156 227.902344 142.652344 227.148438 C 142.003906 226.5 141.140625 225.957031 139.738281 225.417969 C 138.550781 224.878906 137.792969 224.445312 137.363281 224.121094 C 136.929688 223.6875 136.714844 223.257812 136.714844 222.5 C 136.714844 221.851562 136.929688 221.3125 137.46875 220.988281 C 138.007812 220.554688 138.65625 220.339844 139.523438 220.339844 C 140.925781 220.339844 142.003906 220.664062 143.085938 221.417969 L 143.085938 218.933594 C 142.113281 218.394531 140.925781 218.179688 139.738281 218.179688 C 138.117188 218.179688 136.714844 218.609375 135.742188 219.472656 C 134.660156 220.339844 134.230469 221.417969 134.230469 222.714844 C 134.230469 223.90625 134.554688 224.878906 135.203125 225.527344 C 135.742188 226.175781 136.714844 226.714844 138.007812 227.253906 C 139.304688 227.796875 140.167969 228.335938 140.601562 228.769531 C 141.035156 229.199219 141.25 229.632812 141.25 230.28125 C 141.25 231.792969 140.277344 232.550781 138.226562 232.550781 C 136.714844 232.550781 135.308594 232.011719 134.121094 231.039062 L 134.121094 233.738281 C 135.203125 234.386719 136.496094 234.710938 138.007812 234.710938 C 139.84375 234.601562 141.359375 234.171875 142.328125 233.304688 Z M 154.316406 218.179688 C 151.941406 218.179688 149.996094 218.933594 148.59375 220.230469 C 147.082031 221.742188 146.324219 223.90625 146.324219 226.605469 C 146.324219 228.984375 146.972656 230.929688 148.378906 232.441406 C 149.78125 233.953125 151.617188 234.710938 153.992188 234.710938 C 156.367188 234.710938 158.3125 233.953125 159.714844 232.441406 C 161.121094 230.929688 161.875 228.875 161.875 226.390625 C 161.875 223.796875 161.226562 221.851562 159.933594 220.339844 C 158.527344 218.828125 156.691406 218.179688 154.316406 218.179688 Z M 159.285156 226.390625 C 159.285156 228.335938 158.851562 229.847656 157.988281 230.820312 C 157.125 231.902344 155.828125 232.441406 154.207031 232.441406 C 152.589844 232.441406 151.292969 231.902344 150.320312 230.820312 C 149.347656 229.742188 148.917969 228.335938 148.917969 226.390625 C 148.917969 224.335938 149.457031 222.824219 150.429688 221.742188 C 151.402344 220.769531 152.695312 220.230469 154.207031 220.230469 C 155.722656 220.230469 157.015625 220.769531 157.878906 221.742188 C 158.851562 222.824219 159.285156 224.335938 159.285156 226.390625 Z M 166.089844 234.277344 L 168.570312 234.277344 L 168.570312 220.664062 L 172.242188 220.664062 L 172.242188 218.503906 L 168.570312 218.503906 L 168.570312 216.125 C 168.570312 213.964844 169.4375 212.773438 171.164062 212.773438 C 171.8125 212.773438 172.351562 212.882812 172.785156 213.207031 L 172.785156 210.9375 C 172.351562 210.722656 171.703125 210.722656 170.949219 210.722656 C 169.542969 210.722656 168.464844 211.152344 167.601562 212.019531 C 166.519531 212.992188 165.980469 214.289062 165.980469 216.125 L 165.980469 218.71875 L 163.28125 218.71875 L 163.28125 220.878906 L 165.980469 220.878906 Z M 176.457031 229.957031 C 176.457031 232.980469 177.859375 234.601562 180.558594 234.601562 C 181.53125 234.601562 182.289062 234.496094 182.933594 234.0625 L 182.933594 231.902344 C 182.503906 232.226562 181.964844 232.441406 181.316406 232.441406 C 180.453125 232.441406 179.910156 232.226562 179.480469 231.792969 C 179.15625 231.363281 178.941406 230.605469 178.941406 229.523438 L 178.941406 220.664062 L 182.933594 220.664062 L 182.933594 218.503906 L 178.941406 218.503906 L 178.941406 213.855469 C 178.074219 214.179688 177.210938 214.394531 176.457031 214.613281 L 176.457031 218.394531 L 173.753906 218.394531 L 173.753906 220.554688 L 176.457031 220.554688 Z M 446.980469 259.027344 C 446.117188 258.269531 445.144531 257.835938 443.851562 257.835938 C 442.554688 257.835938 441.472656 258.269531 440.71875 259.132812 C 439.855469 259.996094 439.421875 261.078125 439.421875 262.265625 C 439.421875 263.5625 439.855469 264.535156 440.71875 265.402344 C 441.582031 266.15625 442.664062 266.589844 443.851562 266.589844 C 445.144531 266.589844 446.117188 266.15625 446.980469 265.292969 C 447.847656 264.429688 448.277344 263.457031 448.277344 262.160156 C 448.386719 260.863281 447.847656 259.78125 446.980469 259.027344 Z M 446.65625 264.96875 C 445.902344 265.726562 445.039062 266.050781 443.851562 266.050781 C 442.769531 266.050781 441.796875 265.726562 441.042969 264.96875 C 440.285156 264.210938 439.855469 263.238281 439.855469 262.160156 C 439.855469 261.078125 440.179688 260.105469 440.933594 259.347656 C 441.691406 258.59375 442.554688 258.269531 443.742188 258.269531 C 444.820312 258.269531 445.792969 258.59375 446.550781 259.347656 C 447.304688 260.105469 447.738281 261.078125 447.738281 262.160156 C 447.738281 263.238281 447.414062 264.210938 446.65625 264.96875 Z M 444.390625 262.375 C 444.820312 262.265625 445.144531 262.050781 445.46875 261.835938 C 445.6875 261.617188 445.792969 261.1875 445.792969 260.863281 C 445.792969 260.429688 445.6875 260.105469 445.363281 259.78125 C 445.039062 259.457031 444.5 259.347656 443.742188 259.347656 L 442.121094 259.347656 L 442.121094 264.96875 L 442.878906 264.96875 L 442.878906 262.589844 L 443.417969 262.589844 C 443.742188 262.589844 444.066406 262.914062 444.390625 263.5625 L 445.039062 264.96875 L 446.011719 264.96875 L 445.253906 263.457031 C 444.929688 262.808594 444.605469 262.484375 444.390625 262.375 Z M 443.851562 261.835938 L 442.984375 261.835938 L 442.984375 259.996094 L 443.742188 259.996094 C 444.28125 259.996094 444.605469 260.105469 444.820312 260.214844 C 445.039062 260.320312 445.039062 260.539062 445.039062 260.96875 C 444.929688 261.617188 444.605469 261.835938 443.851562 261.835938 Z M 303.132812 217.855469 L 303.890625 217.855469 L 303.890625 212.234375 L 305.726562 212.234375 L 305.726562 211.476562 L 301.296875 211.476562 L 301.296875 212.234375 L 303.132812 212.234375 Z M 307.34375 213.640625 L 307.34375 212.34375 C 307.34375 212.667969 307.453125 212.882812 307.5625 212.992188 L 309.722656 217.855469 L 310.046875 217.855469 L 312.203125 212.992188 C 312.3125 212.882812 312.3125 212.667969 312.421875 212.34375 L 312.421875 217.855469 L 313.175781 217.855469 L 313.175781 211.476562 L 312.3125 211.476562 L 310.367188 215.910156 C 310.367188 216.015625 310.152344 216.339844 310.046875 216.773438 L 309.9375 216.773438 C 309.9375 216.558594 309.828125 216.339844 309.613281 216.015625 L 307.667969 211.585938 L 306.695312 211.585938 L 306.695312 217.960938 L 307.453125 217.960938 Z M 307.34375 213.640625 "/>
</g>
</svg>
