<?xml version="1.0" encoding="UTF-8"?>
<svg xmlns="http://www.w3.org/2000/svg" xmlns:xlink="http://www.w3.org/1999/xlink" width="500px" height="65px" viewBox="0 0 496 65" version="1.1">
<g id="surface1">
<path style=" stroke:none;fill-rule:nonzero;fill:rgb(91.764706%,10.588235%,13.333333%);fill-opacity:1;" d="M 214.140625 42.011719 L 246.902344 42.011719 L 229.578125 14.089844 L 197.789062 64.570312 L 183.320312 64.570312 L 221.988281 3.929688 C 223.667969 1.480469 226.472656 0 229.578125 0 C 232.585938 0 235.386719 1.429688 237.019531 3.828125 L 275.839844 64.570312 L 261.371094 64.570312 L 254.546875 53.292969 L 221.378906 53.292969 L 214.144531 42.011719 Z M 364.441406 53.289062 L 364.441406 0.613281 L 352.164062 0.613281 L 352.164062 58.445312 C 352.164062 60.027344 352.773438 61.5625 353.945312 62.734375 C 355.117188 63.910156 356.695312 64.570312 358.429688 64.570312 L 414.421875 64.570312 L 421.65625 53.292969 L 364.4375 53.292969 Z M 161.308594 43.847656 C 173.230469 43.847656 182.910156 34.199219 182.910156 22.253906 C 182.910156 10.308594 173.230469 0.609375 161.308594 0.609375 L 107.59375 0.609375 L 107.59375 64.574219 L 119.867188 64.574219 L 119.867188 11.894531 L 160.492188 11.894531 C 166.199219 11.894531 170.785156 16.539062 170.785156 22.257812 C 170.785156 27.972656 166.199219 32.617188 160.492188 32.617188 L 125.878906 32.566406 L 162.53125 64.574219 L 180.363281 64.574219 L 155.703125 43.847656 Z M 32.039062 64.570312 C 14.414062 64.574219 0.113281 50.28125 0.113281 32.617188 C 0.113281 14.957031 14.414062 0.613281 32.039062 0.613281 L 69.144531 0.613281 C 86.769531 0.613281 101.0625 14.957031 101.0625 32.617188 C 101.0625 50.28125 86.769531 64.570312 69.140625 64.570312 Z M 68.320312 53.292969 C 79.734375 53.292969 88.984375 44.050781 88.984375 32.617188 C 88.984375 21.183594 79.734375 11.894531 68.320312 11.894531 L 32.859375 11.894531 C 21.445312 11.894531 12.191406 21.183594 12.191406 32.617188 C 12.191406 44.050781 21.445312 53.292969 32.859375 53.292969 Z M 301.46875 64.570312 C 283.839844 64.570312 269.523438 50.28125 269.523438 32.617188 C 269.523438 14.957031 283.839844 0.613281 301.46875 0.613281 L 345.539062 0.613281 L 338.355469 11.894531 L 302.285156 11.894531 C 290.871094 11.894531 281.597656 21.183594 281.597656 32.617188 C 281.597656 44.050781 290.871094 53.292969 302.285156 53.292969 L 346.558594 53.292969 L 339.324219 64.570312 Z M 451.613281 53.292969 C 442.1875 53.292969 434.191406 46.960938 431.746094 38.234375 L 484.222656 38.234375 L 491.457031 26.953125 L 431.746094 26.953125 C 434.191406 18.273438 442.1875 11.894531 451.613281 11.894531 L 487.636719 11.894531 L 494.917969 0.609375 L 450.796875 0.609375 C 433.171875 0.609375 418.855469 14.953125 418.855469 32.617188 C 418.855469 50.277344 433.171875 64.570312 450.796875 64.570312 L 488.652344 64.570312 L 495.886719 53.292969 Z M 451.613281 53.292969 "/>
</g>
</svg>
